<svg xmlns="http://www.w3.org/2000/svg" viewBox="0 0 256 256" xmlns:v="https://vecta.io/nano"><path fill="#3178c6" d="M20 0h216c11.046 0 20 8.954 20 20v216c0 11.046-8.954 20-20 20H20c-11.046 0-20-8.954-20-20V20C0 8.954 8.954 0 20 0"/><path fill="#fff" d="M150.518 200.475v27.62c4.492 2.302 9.805 4.028 15.938 5.179S179.053 235 185.849 235c6.622 0 12.914-.633 18.874-1.899s11.187-3.352 15.678-6.257a31.9 31.9 0 0 0 10.669-11.394c2.62-4.689 3.93-10.486 3.93-17.391 0-5.006-.749-9.394-2.246-13.163a30.748 30.748 0 0 0-6.479-10.055c-2.821-2.935-6.205-5.567-10.149-7.898s-8.394-4.531-13.347-6.602c-3.628-1.497-6.881-2.949-9.761-4.359s-5.327-2.848-7.342-4.316-3.571-3.021-4.665-4.661-1.641-3.495-1.641-5.567c0-1.899.489-3.61 1.468-5.135s2.362-2.834 4.147-3.927 3.973-1.942 6.565-2.547 5.471-.906 8.638-.906c2.304 0 4.737.173 7.299.518s5.14.877 7.732 1.597a53.669 53.669 0 0 1 7.558 2.719 41.7 41.7 0 0 1 6.781 3.797v-25.807c-4.204-1.611-8.797-2.805-13.778-3.582S205.083 107 198.633 107c-6.565 0-12.784.705-18.658 2.115s-11.043 3.61-15.506 6.602-7.99 6.805-10.582 11.437S150 137.324 150 143.769c0 8.228 2.375 15.248 7.127 21.06s11.963 10.731 21.638 14.759a291.458 291.458 0 0 1 10.625 4.575c3.283 1.496 6.119 3.049 8.509 4.66s4.276 3.366 5.658 5.265 2.073 4.057 2.073 6.474a9.901 9.901 0 0 1-1.296 4.963c-.863 1.524-2.174 2.848-3.93 3.97s-3.945 1.999-6.565 2.632-5.687.95-9.2.95c-5.989 0-11.92-1.05-17.794-3.151s-11.317-5.25-16.327-9.451m-46.036-68.733H140V109H41v22.742h35.345V233h28.137z"/></svg>