<svg width="36" height="36" viewBox="0 0 36 36" fill="none" xmlns="http://www.w3.org/2000/svg">
<path d="M13 26H23" stroke="#35FF69" stroke-width="2" stroke-linecap="round" stroke-linejoin="round"/>
<path d="M16 26C21.5 23.5 16.8 19.6 19 16" stroke="#35FF69" stroke-width="2" stroke-linecap="round" stroke-linejoin="round"/>
<path d="M15.5 15.4C16.6 16.2 17.3 17.6 17.8 19.1C15.8 19.5 14.3 19.5 13 18.8C11.8 18.2 10.7 16.9 10 14.6C12.8 14.1 14.4 14.6 15.5 15.4Z" stroke="#35FF69" stroke-width="2" stroke-linecap="round" stroke-linejoin="round"/>
<path d="M20.1 12C19.3376 13.1916 18.9541 14.5861 19 16C20.9 15.9 22.3 15.4 23.3 14.6C24.3 13.6 24.9 12.3 25 10C22.3 10.1 21 11 20.1 12Z" stroke="#35FF69" stroke-width="2" stroke-linecap="round" stroke-linejoin="round"/>
<path d="M18 3C20.9102 2.99947 23.7577 3.84552 26.1955 5.43503C28.6333 7.02455 30.5561 9.28888 31.7294 11.9521C32.9028 14.6152 33.2762 17.5622 32.804 20.4339C32.3318 23.3055 31.0344 25.9778 29.07 28.125" stroke="#9A35FF" stroke-width="2" stroke-linecap="round" stroke-linejoin="round"/>
<path d="M3.75 13.3125C3.27202 14.7655 3.0191 16.283 3 17.8125" stroke="#9A35FF" stroke-width="2" stroke-linecap="round" stroke-linejoin="round"/>
<path d="M4.24512 24C5.08737 25.9377 6.32949 27.6757 7.89012 29.1" stroke="#9A35FF" stroke-width="2" stroke-linecap="round" stroke-linejoin="round"/>
<path d="M6.9541 7.85252C7.37266 7.39686 7.81901 6.96754 8.2906 6.56702" stroke="#9A35FF" stroke-width="2" stroke-linecap="round" stroke-linejoin="round"/>
<path d="M12.9661 32.13C16.7066 33.4626 20.8229 33.2576 24.4126 31.56" stroke="#9A35FF" stroke-width="2" stroke-linecap="round" stroke-linejoin="round"/>
</svg>
